<?xml version="1.0" standalone="no"?>
<!DOCTYPE svg PUBLIC "-//W3C//DTD SVG 20010904//EN"
 "http://www.w3.org/TR/2001/REC-SVG-20010904/DTD/svg10.dtd">
<svg version="1.0" xmlns="http://www.w3.org/2000/svg"
 width="225.000000pt" height="225.000000pt" viewBox="0 0 225.000000 225.000000"
 preserveAspectRatio="xMidYMid meet">

<g transform="translate(0.000000,225.000000) scale(0.100000,-0.100000)"
fill="#000000" stroke="none">
<path d="M790 1826 c-151 -42 -281 -159 -341 -306 -31 -77 -38 -234 -14 -316
27 -94 73 -169 142 -234 74 -69 137 -104 225 -125 127 -30 247 -14 364 49 53
28 64 31 69 18 4 -12 17 -4 55 33 38 38 47 52 38 62 -8 10 -7 18 4 31 9 9 28
41 42 69 143 286 -13 638 -319 718 -70 18 -202 18 -265 1z m222 -47 c134 -28
254 -122 315 -246 34 -68 38 -85 41 -172 5 -116 -12 -183 -67 -268 -115 -178
-336 -252 -537 -180 -133 48 -242 170 -279 312 -82 318 207 621 527 554z"/>
<path d="M737 1581 c-10 -4 -17 -11 -15 -16 1 -6 37 -39 78 -74 41 -35 76 -67
78 -72 2 -4 -32 -24 -75 -44 l-78 -37 -57 20 c-46 17 -59 18 -74 8 -15 -12
-14 -15 20 -41 20 -15 35 -35 34 -44 -2 -12 4 -15 31 -13 47 3 510 140 545
160 44 26 55 50 32 68 -29 21 -85 17 -173 -11 l-78 -24 -122 64 c-67 36 -123
65 -125 64 -2 0 -11 -4 -21 -8z"/>
<path d="M667 1153 c-13 -13 -7 -42 11 -47 9 -2 137 -5 283 -5 278 0 308 4
293 42 -6 16 -31 17 -293 17 -158 0 -291 -3 -294 -7z"/>
<path d="M1327 912 c-45 -46 -46 -48 -31 -71 l16 -23 54 53 c50 50 53 54 37
71 -9 10 -19 18 -22 18 -4 0 -28 -22 -54 -48z"/>
<path d="M1401 836 l-53 -54 137 -158 c177 -206 186 -214 233 -214 31 0 45 7
75 38 30 31 37 45 37 78 0 34 -6 46 -42 80 -54 51 -324 284 -329 284 -3 0 -29
-24 -58 -54z"/>
</g>
</svg>
